<svg width="117" height="69" fill="none" xmlns="http://www.w3.org/2000/svg"><path d="M43.563 42.79c-15.109-2.938-23.312-9.26-23.312-9.26m19.624-21.821c3.73 2.293 6.753 3.578 10.554 1.832 2.757-1.266 5.912-4.299 5.104-5.854m0 0c-.287-.553-.74-1.016-1.199-1.344-9.804-5.315-18.8 1.356-22.296 5.59a.394.394 0 01-.504.092C22.83 7.02 5.075 5.21 4.954 14.349 4.85 22.1 20.25 33.53 20.25 33.53M55.533 7.687l-6.397.64m19.174 9.179c3.78.01 9.712.773 15.31 3.026m13.496 12.415c-1.457-3.842-4.066-6.788-7.197-9.024M100.76 34.28c2.504 2.318 5.173 6.352 7.394 11.043 2.174 4.591 3.386 11.532 3.946 15.582.18 1.302-1.208 2.106-2.212 1.259-1.873-1.58-4.179-3.873-4.832-6.022m-3.62-11.305s-1.47 3.47.927 11.11c.444 1.416 2.704 6.22 4.154 9.251.195.41-.295.721-.575.364-2.756-3.515-7.765-10.6-8.562-16.565-1.373-10.275-.922-12.343-3.885-15.242-2.162-2.116-5.426-3.777-8.438-3.995m-5.03-2.938c1.683.75 4.314 2.797 1.376 4.99-.68.195-1.73.395-3.042.504m-9.922 1.88a74.001 74.001 0 01-6.272 3.073m-8.951 2.46c2.134.154 5.663-1.043 8.95-2.46m0 0c1.848.888 5.983 2.242 7.747.56 1.764-1.683 1.458-3 1.085-3.448m-23.677-.944c3.69 2.994 7.58 8.264-6.38 5.404-3.696-1.193-11.166-4.605-12.958-9.09-.12-.3.186-.567.485-.445 2.142.867 5.777 2.08 9.51 2.688m5.027.363c-1.608.064-3.328-.087-5.027-.364m0 0L41.85 35.8m-21.6-2.269s.397 11.068 9.011 14.108c.75-.15 1.684-1.624-.59-6.31m31.226-27.103c4.17-2.19 10.766-5.059 11.985-3.628m-1.068 3.35c1.258-1.8 1.499-2.844 1.068-3.35m0 0L65.8 14.652m17.82 5.88c3.308-1.04 9.372-2.037 7.16 2.291l-.862 1.1m-6.298-3.391c2.201.886 4.35 2.001 6.298 3.391m-13.9 3.517l-2.427.939m0 0l-5.29 2.047c-.334.129-.329.596.011.708 3.814 1.252 7.446 1.397 10.05 1.18m-4.77-3.935l4.77 3.936" stroke="#113380" stroke-width="1.5" stroke-linecap="round"/><path d="M15.225 11.834c1.048 1.076 3.478 2.483 4.818-.495m2.933 6.12c1.839.507 5.692.636 6.4-2.914m-4.924 8.394c.63 1.068 1.094 3.186-2.098 3.116M36.1 24.18c-.405.682-1.627 2.017-3.272 1.898m9.689-3.034c-.342.731-1.45 2.149-3.144 1.973m9.01-2.882c.019.979-.29 2.913-1.67 2.813m6.944-1.965c.375.65.799 2.045-.51 2.43m9.532-2.711c-.054.44-.487 1.391-1.787 1.67m6.322-1.676c1.342.497 3.293 1.865.357 3.36m-7.55 4.796c1.345.098 2.456-1.018 2.548-2.299m-9.442 4.037c1.168.673 2.654.152 3.295-.96" stroke="#113380" stroke-width="1.5" stroke-linecap="round"/><path d="M36.817 13.99c5.39 1.983 18.285 5.484 26.757 3.626" stroke="#113380" stroke-width="1.5" stroke-linecap="round" stroke-dasharray="5 5"/></svg>