<svg width="55" height="66" fill="none" xmlns="http://www.w3.org/2000/svg"><path stroke="#113380" stroke-width="1.5" stroke-linecap="round" d="M4.758 61.269V2.186m46.365 59.083V2.186M.83 1.173h14.567m38.612 0h-30.75M.886 54.551h53.065M.886 43.242h53.065M.886 30.977h53.065M.886 18.254h53.065"/><circle cx="4.307" cy="63.999" r="1.519" fill="#113380"/><circle cx="50.831" cy="63.999" r="1.519" fill="#113380"/><rect x="11.101" y="14.895" width="11.79" height="2.409" rx="1.204" fill="#113380"/><rect x="11.101" y="27.573" width="11.79" height="2.409" rx="1.204" fill="#113380"/><rect x="11.101" y="40.251" width="11.79" height="2.409" rx="1.204" fill="#113380"/><rect x="11.101" y="51.407" width="11.79" height="2.409" rx="1.204" fill="#113380"/><rect x="33.289" y="14.895" width="11.79" height="2.409" rx="1.204" fill="#113380"/><rect x="33.289" y="27.573" width="11.79" height="2.409" rx="1.204" fill="#113380"/><rect x="33.289" y="40.251" width="11.79" height="2.409" rx="1.204" fill="#113380"/><rect x="33.289" y="51.407" width="11.79" height="2.409" rx="1.204" fill="#113380"/></svg>