<svg width="123" height="51" fill="none" xmlns="http://www.w3.org/2000/svg"><path d="M13.95 31.504c1.845.71 5.876 1.192 7.238-2.554m-12.349.426l-2.98-2.554m15.751 9.365c3.549-.71 9.793-4.598 6.387-14.475" stroke="#113380" stroke-width="1.5" stroke-linecap="round"/><path d="M5.434 24.693c8.09-4.258 23.416-13.198 42.148-12.347 20.01 0 34.91 8.515 45.128 12.347" stroke="#113380" stroke-width="1.5" stroke-linecap="round" stroke-dasharray="10 10"/><path d="M40.346 27.401a48.99 48.99 0 01-2.848 1.676.986.986 0 01-1.063-.08l-1.36-1.02c-1.326-.995-.93-3.059.686-3.428 3.447-.787 7.275-1.424 7.991-.708.501.501-.477 1.5-1.923 2.555M32.68 40.445s1.703 5.96 7.238 8.515c5.535 2.554 2.214-4.087 2.554-5.11m26.399-5.534c1.703 2.555 3.406 4.371 8.94 3.832 5.636-.549 5.535-7.237 11.921-8.515M54.82 8.515l5.08-4.69a.98.98 0 011.025-.2c10.264 4.001 30.237 14.259 33.914 18.939" stroke="#113380" stroke-width="1.5" stroke-linecap="round"/><path d="M52.691 40.694c-15.552 1.363-33.188-.772-48.96-11.744L2.03 27.247l1.703-1.277-1.703-1.277c9.496-8.671 31.712-20 60.029-14.915m-2.98 30.154C79.088 36.927 94.343 28.95 95.264 28.95c1.703 0 8.94.426 11.495 5.534 2.043 4.088 9.65 5.96 13.198 6.387-3.974-3.69-11.836-12.091-11.495-16.178.34-4.088 8.656-11.637 11.495-14.476-2.945.446-5.889 2.311-9.537 5.11M67.166 10.86c9.152 2.24 18.871 6.226 28.95 12.554.852.426 3.832.256 8.941-3.831 1.206-.965 2.337-1.877 3.406-2.726" stroke="#113380" stroke-width="1.5" stroke-linecap="round"/><path d="M40.345 8.515l3.047-6.77a1 1 0 011.769-.104l2.847 4.745" stroke="#113380" stroke-width="1.5" stroke-linecap="round"/><circle cx="12.674" cy="25.544" r="1.379" stroke="#113380" stroke-width="1.5" stroke-linecap="round"/></svg>