<svg width="18" height="18" fill="none" xmlns="http://www.w3.org/2000/svg"><path d="M11.429 8.857a2.863 2.863 0 01-2.858 2.857 2.863 2.863 0 01-2.857-2.857A2.863 2.863 0 018.571 6a2.863 2.863 0 012.858 2.857zm1.54 0A4.392 4.392 0 008.57 4.46a4.392 4.392 0 00-4.397 4.397 4.392 4.392 0 004.397 4.398 4.392 4.392 0 004.398-4.398zm1.205-4.576c0-.569-.457-1.027-1.027-1.027-.569 0-1.027.458-1.027 1.027 0 .57.458 1.027 1.027 1.027.57 0 1.027-.458 1.027-1.027zM8.571 1.826c1.25 0 3.929-.1 5.056.346.39.156.681.346.982.647.302.302.491.592.648.982.446 1.128.346 3.806.346 5.056s.1 3.929-.346 5.056a2.74 2.74 0 01-.648.982 2.74 2.74 0 01-.982.647c-1.127.447-3.806.346-5.056.346s-3.928.1-5.055-.346a2.74 2.74 0 01-.983-.647 2.74 2.74 0 01-.647-.982c-.446-1.127-.346-3.806-.346-5.056s-.1-3.928.346-5.056c.156-.39.346-.68.647-.982a2.74 2.74 0 01.983-.647c1.127-.447 3.805-.346 5.055-.346zm8.572 7.031c0-1.183.011-2.355-.056-3.538-.067-1.373-.38-2.59-1.384-3.594S13.483.408 12.11.342C10.926.275 9.754.286 8.571.286c-1.183 0-2.354-.011-3.538.056C3.661.408 2.444.72 1.44 1.725.435 2.73.123 3.946.056 5.32-.011 6.502 0 7.674 0 8.857c0 1.183-.011 2.355.056 3.538.067 1.373.38 2.59 1.384 3.594s2.22 1.317 3.593 1.384c1.184.067 2.355.056 3.538.056 1.183 0 2.355.01 3.538-.056 1.373-.067 2.59-.38 3.594-1.384 1.005-1.005 1.317-2.221 1.384-3.594.067-1.183.056-2.355.056-3.538z" fill="#2987DD"/></svg>