<svg width="23" height="14" fill="none" xmlns="http://www.w3.org/2000/svg"><path d="M22.395 1.66s-.156-.446-1.127-.323l-3.214.022c-.246-.033-.424.067-.424.067s-.19.1-.28.346c-.524 1.35-1.194 2.511-1.194 2.511-1.428 2.434-2.009 2.567-2.243 2.411-.547-.346-.402-1.406-.402-2.165 0-2.366.357-3.348-.703-3.605-.346-.078-.603-.134-1.507-.145-1.15-.011-2.12 0-2.667.268-.368.178-.647.58-.48.603.212.033.692.133.949.48 0 0 .279.457.323 1.462.123 2.779-.446 3.125-.446 3.125-.435.234-1.194-.157-2.31-2.456 0 0-.648-1.138-1.15-2.388a.82.82 0 00-.268-.357s-.2-.157-.49-.201l-3.059.022c-.469 0-.636.212-.636.212s-.167.179-.011.547c2.388 5.614 5.111 8.426 5.111 8.426s2.49 2.6 5.313 2.422h1.283c.391-.033.592-.245.592-.245s.178-.201.167-.57c-.022-1.718.782-1.975.782-1.975.78-.246 1.785 1.663 2.857 2.4 0 0 .814.558 1.428.435l2.857-.045c1.507-.011.793-1.261.793-1.261-.056-.1-.413-.87-2.132-2.466-1.786-1.663-1.551-1.396.614-4.275 1.317-1.752 1.841-2.824 1.674-3.281z" fill="#2987DD"/></svg>