<svg width="7" height="11" viewBox="0 0 7 11" fill="none" xmlns="http://www.w3.org/2000/svg">
<path d="M6.80469 7.1875L6.33594 6.71875C6.21875 6.625 6.05469 6.625 5.9375 6.74219L4.10937 8.61719L4.10937 0.53125C4.10937 0.390625 3.99219 0.25 3.82812 0.25L3.17187 0.25C3.03125 0.25 2.89062 0.390625 2.89062 0.53125L2.89062 8.61719L1.08594 6.74219C0.96875 6.625 0.804687 6.625 0.6875 6.71875L0.21875 7.1875C0.125 7.30469 0.125 7.46875 0.21875 7.58594L3.3125 10.6797C3.42969 10.7734 3.59375 10.7734 3.71094 10.6797L6.80469 7.58594C6.89844 7.46875 6.89844 7.30469 6.80469 7.1875Z" fill="#113380"/>
</svg>
