<svg width="14" height="16" viewBox="0 0 14 16" fill="none" xmlns="http://www.w3.org/2000/svg">
<g clip-path="url(#clip0)">
<path d="M7.09591 16.0275C4.67287 16.0275 2.48914 14.7462 0.963524 12.422C0.380199 11.5281 0.0810547 10.4703 0.0810547 9.35286V3.42316H14.1257V9.35286C14.1257 10.4703 13.8116 11.5281 13.2433 12.4071C11.7027 14.7462 9.51896 16.0275 7.09591 16.0275ZM1.50197 4.83854V9.33796C1.50197 10.1723 1.72633 10.9768 2.16009 11.6175C3.05751 12.9733 4.628 14.5972 7.11087 14.5972C9.59374 14.5972 11.1642 12.9733 12.0616 11.6175C12.4954 10.9619 12.7198 10.1723 12.7198 9.33796V4.83854H1.50197Z" fill="#2F3E78"/>
<path d="M11.2839 4.83856H2.87805L2.90797 4.09362C2.9678 2.67824 3.91008 -0.00354004 7.05106 -0.00354004C10.1771 -0.00354004 11.1642 2.66334 11.239 4.07873L11.2839 4.83856ZM4.46349 3.42318H9.6835C9.44419 2.60374 8.80103 1.42675 7.05106 1.42675C5.31604 1.42675 4.68785 2.60374 4.46349 3.42318Z" fill="#2F3E78"/>
</g>
<defs>
<clipPath id="clip0">
<rect width="14" height="16" fill="white"/>
</clipPath>
</defs>
</svg>
