<svg width="10" height="10" viewBox="0 0 10 10" fill="none" xmlns="http://www.w3.org/2000/svg">
<path d="M6.27722 4.75L9.09363 1.96094L9.66785 1.38672C9.74988 1.30469 9.74988 1.16797 9.66785 1.05859L9.06628 0.457031C8.95691 0.375 8.82019 0.375 8.73816 0.457031L5.37488 3.84766L1.98425 0.457031C1.90222 0.375 1.7655 0.375 1.65613 0.457031L1.05457 1.05859C0.972534 1.16797 0.972534 1.30469 1.05457 1.38672L4.44519 4.75L1.05457 8.14062C0.972534 8.22266 0.972534 8.35938 1.05457 8.46875L1.65613 9.07031C1.7655 9.15234 1.90222 9.15234 1.98425 9.07031L5.37488 5.67969L8.16394 8.49609L8.73816 9.07031C8.82019 9.15234 8.95691 9.15234 9.06628 9.07031L9.66785 8.46875C9.74988 8.35938 9.74988 8.22266 9.66785 8.14062L6.27722 4.75Z" fill="#113380"/>
</svg>
