<svg width="20" height="20" viewBox="0 0 20 20" fill="none" xmlns="http://www.w3.org/2000/svg">
<path d="M9.98877 0C4.49495 0 0 4.39496 0 9.98854C0 15.4822 4.29517 19.6774 9.18967 19.9771C15.3827 20.3766 19.6779 15.4822 19.9775 10.7876C20.3771 4.49484 15.3827 0 9.98877 0ZM9.48933 1.09874C9.78899 1.09874 10.0887 1.09874 10.4882 1.09874C10.4882 1.79794 10.4882 2.59702 10.4882 3.29622C10.1885 3.29622 9.88888 3.29622 9.48933 3.29622C9.48933 2.49714 9.48933 1.79794 9.48933 1.09874ZM3.29629 10.488C2.59708 10.488 1.79798 10.488 1.09876 10.488C1.09876 10.1883 1.09876 9.88865 1.09876 9.48911C1.79798 9.48911 2.59708 9.48911 3.29629 9.48911C3.29629 9.78877 3.29629 10.1883 3.29629 10.488ZM10.4882 18.8783C10.1885 18.8783 9.88888 18.8783 9.48933 18.8783C9.48933 18.1791 9.48933 17.3801 9.48933 16.6809C9.78899 16.6809 10.0887 16.6809 10.4882 16.6809C10.4882 17.3801 10.4882 18.0793 10.4882 18.8783ZM11.8866 15.7819C11.6869 15.1826 11.3872 14.6832 11.1874 14.0838C10.8878 13.2848 10.4882 12.4857 10.1885 11.5867C10.1885 11.4868 10.0887 11.3869 9.98877 11.3869C9.08978 11.3869 8.39057 10.488 8.49045 9.589C8.59034 9.28934 8.49045 9.18946 8.29068 8.98969C7.59147 8.69003 6.79236 8.09072 6.09315 7.49141C6.09315 7.49141 5.99326 7.39152 5.89337 7.29163C6.09315 6.99198 6.29293 6.79221 6.4927 6.49255C6.89225 6.79221 7.19191 7.09186 7.59147 7.39152C8.0909 7.79106 8.59034 8.1906 8.98989 8.49026C9.08978 8.59015 9.18967 8.59015 9.28956 8.49026C10.1885 7.99083 11.1874 8.49026 11.4871 9.28934C11.6869 9.88866 11.587 10.3881 11.1874 10.8875C11.0875 10.9874 11.0875 11.0873 11.1874 11.1872C11.6869 12.4857 12.2862 13.8841 12.7856 15.1826C12.7856 15.2825 12.7856 15.2825 12.8855 15.3824C12.486 15.5821 12.1863 15.682 11.8866 15.7819ZM18.8788 10.488C18.1796 10.488 17.3805 10.488 16.6812 10.488C16.6812 10.1883 16.6812 9.88865 16.6812 9.48911C17.3805 9.48911 18.1796 9.48911 18.8788 9.48911C18.8788 9.78877 18.8788 10.1883 18.8788 10.488Z" fill="white"/>
<path d="M9.98877 9.48911C9.68911 9.48911 9.48933 9.68888 9.48933 9.98854C9.48933 10.2882 9.68911 10.5879 9.98877 10.5879C10.2884 10.5879 10.5881 10.3881 10.5881 9.98854C10.5881 9.68888 10.2884 9.48911 9.98877 9.48911Z" fill="white"/>
</svg>
