<svg width="20" height="14" viewBox="0 0 20 14" fill="none" xmlns="http://www.w3.org/2000/svg">
<path d="M9.48213 7.7218C9.85688 8.0571 10.1626 8.0423 10.5472 7.69714C13.2888 5.24155 16.0353 2.79089 18.7769 0.335301C18.8508 0.266269 18.9248 0.197236 19.0579 0.0739636C18.7572 0.0443781 18.5303 0.0049309 18.3035 0.0049309C15.3795 0 12.4555 0 9.53144 0C6.9082 0 4.28989 0 1.66665 0.0049309C1.44475 0.0049309 1.22286 0.049309 0.941803 0.0788945C1.04042 0.172582 1.07987 0.212029 1.12425 0.251476C3.90528 2.74158 6.69617 5.23169 9.48213 7.7218Z" fill="white"/>
<path d="M11.5383 8.88056C10.8825 9.45747 10.1231 9.63498 9.29475 9.35392C8.98411 9.25037 8.69318 9.05314 8.43678 8.84604C8.00779 8.50581 7.61332 8.1212 7.18926 7.74152C5.25141 9.60047 3.32836 11.4496 1.36093 13.3332C7.13502 13.3332 12.845 13.3332 18.6142 13.3332C16.6566 11.4446 14.7434 9.59061 12.8105 7.72673C12.3766 8.12613 11.9624 8.50581 11.5383 8.88056Z" fill="white"/>
<path d="M0.0197236 1.32148C0.00986181 1.46941 0 1.55817 0 1.64199C0 4.99007 0 8.34309 0.0049309 11.6912C0.0049309 11.9131 0.0542399 12.1399 0.0887563 12.4259C2.1055 10.488 4.07293 8.59949 6.04529 6.7011C4.03348 4.90625 2.04632 3.13605 0.0197236 1.32148Z" fill="white"/>
<path d="M19.9356 1.35107C17.9485 3.13112 15.9663 4.90132 13.9692 6.69124C15.9367 8.58963 17.8893 10.4831 19.8567 12.3815C19.9899 12.0758 20.0589 1.77019 19.9356 1.35107Z" fill="white"/>
</svg>
