<svg width="18" height="20" viewBox="0 0 18 20" fill="none" xmlns="http://www.w3.org/2000/svg">
<path d="M3.54766 6.69116C3.94294 11.0656 6.27947 14.3596 10.8823 15.9495C11.137 15.3961 11.3742 14.8339 11.664 14.2981C11.989 13.7008 12.2701 13.5866 12.9201 13.7095C13.8776 13.9028 14.8351 14.1048 15.7925 14.3244C16.5479 14.5001 16.8905 14.9042 16.9344 15.6684C16.9959 16.7224 17.0486 17.7677 17.1013 18.8218C17.1364 19.586 16.9432 19.9022 16.1614 19.9462C15.0283 19.9989 13.8688 20.0516 12.7533 19.9022C9.24845 19.4367 6.24434 17.8907 3.88145 15.2731C0.771927 11.8298 -0.536883 7.78916 0.20097 3.16001C0.332729 2.3431 0.569896 1.53498 0.850983 0.753205C1.1145 -0.00221598 1.45708 -0.125191 2.2125 0.103192C3.25779 0.419414 4.31186 0.735637 5.35716 1.06064C5.97203 1.24511 6.34096 1.66674 6.34096 2.30797C6.34096 3.37083 6.30582 4.44247 6.24434 5.50533C6.2092 6.09385 5.77 6.41008 4.95309 6.51548C4.49633 6.57697 4.03078 6.62968 3.54766 6.69116Z" fill="white"/>
</svg>
