<svg width="17" height="15" viewBox="0 0 17 15" fill="none" xmlns="http://www.w3.org/2000/svg">
<path d="M15.3125 1.03125C13.5 -0.5 10.7188 -0.28125 9 1.5C7.25 -0.28125 4.46875 -0.5 2.65625 1.03125C0.3125 3 0.65625 6.21875 2.34375 7.9375L7.8125 13.5312C8.125 13.8438 8.53125 14.0312 9 14.0312C9.4375 14.0312 9.84375 13.8438 10.1562 13.5312L15.6562 7.9375C17.3125 6.21875 17.6562 3 15.3125 1.03125ZM14.5625 6.875L9.09375 12.4688C9.03125 12.5312 8.96875 12.5312 8.875 12.4688L3.40625 6.875C2.25 5.71875 2.03125 3.53125 3.625 2.1875C4.84375 1.15625 6.71875 1.3125 7.90625 2.5L9 3.625L10.0938 2.5C11.25 1.3125 13.125 1.15625 14.3438 2.15625C15.9375 3.53125 15.7188 5.71875 14.5625 6.875Z" fill="#113380"/>
</svg>
