<svg width="40" height="40" viewBox="0 0 40 40" fill="none" xmlns="http://www.w3.org/2000/svg">
<circle cx="20" cy="20" r="20" fill="#5386D9"/>
<path d="M19.4821 20.7218C19.8569 21.0571 20.1626 21.0423 20.5472 20.6971C23.2888 18.2416 26.0353 15.7909 28.7769 13.3353C28.8508 13.2663 28.9248 13.1972 29.0579 13.074C28.7572 13.0444 28.5303 13.0049 28.3035 13.0049C25.3795 13 22.4555 13 19.5314 13C16.9082 13 14.2899 13 11.6666 13.0049C11.4448 13.0049 11.2229 13.0493 10.9418 13.0789C11.0404 13.1726 11.0799 13.212 11.1242 13.2515C13.9053 15.7416 16.6962 18.2317 19.4821 20.7218Z" fill="white"/>
<path d="M21.5383 21.8806C20.8825 22.4575 20.1231 22.635 19.2948 22.3539C18.9841 22.2504 18.6932 22.0531 18.4368 21.846C18.0078 21.5058 17.6133 21.1212 17.1893 20.7415C15.2514 22.6005 13.3284 24.4496 11.3609 26.3332C17.135 26.3332 22.845 26.3332 28.6142 26.3332C26.6566 24.4446 24.7434 22.5906 22.8105 20.7267C22.3766 21.1261 21.9624 21.5058 21.5383 21.8806Z" fill="white"/>
<path d="M10.0197 14.3215C10.0099 14.4694 10 14.5582 10 14.642C10 17.9901 10 21.3431 10.0049 24.6912C10.0049 24.9131 10.0542 25.1399 10.0888 25.4259C12.1055 23.488 14.0729 21.5995 16.0453 19.7011C14.0335 17.9062 12.0463 16.1361 10.0197 14.3215Z" fill="white"/>
<path d="M29.9356 14.3511C27.9485 16.1311 25.9663 17.9013 23.9692 19.6912C25.9367 21.5896 27.8893 23.4831 29.8567 25.3815C29.9899 25.0758 30.0589 14.7702 29.9356 14.3511Z" fill="white"/>
</svg>
