<svg width="40" height="40" viewBox="0 0 40 40" fill="none" xmlns="http://www.w3.org/2000/svg">
<circle cx="20" cy="20" r="20" fill="#5386D9"/>
<path d="M14.5477 16.6912C14.9429 21.0656 17.2795 24.3596 21.8823 25.9495C22.137 25.3961 22.3742 24.8339 22.664 24.2981C22.989 23.7008 23.2701 23.5866 23.9201 23.7095C24.8776 23.9028 25.8351 24.1048 26.7925 24.3244C27.5479 24.5001 27.8905 24.9042 27.9344 25.6684C27.9959 26.7224 28.0486 27.7677 28.1013 28.8218C28.1364 29.586 27.9432 29.9022 27.1614 29.9462C26.0283 29.9989 24.8688 30.0516 23.7533 29.9022C20.2485 29.4367 17.2443 27.8907 14.8814 25.2731C11.7719 21.8298 10.4631 17.7892 11.201 13.16C11.3327 12.3431 11.5699 11.535 11.851 10.7532C12.1145 9.99778 12.4571 9.87481 13.2125 10.1032C14.2578 10.4194 15.3119 10.7356 16.3572 11.0606C16.972 11.2451 17.341 11.6667 17.341 12.308C17.341 13.3708 17.3058 14.4425 17.2443 15.5053C17.2092 16.0939 16.77 16.4101 15.9531 16.5155C15.4963 16.577 15.0308 16.6297 14.5477 16.6912Z" fill="white"/>
</svg>
