<svg width="22" height="21" viewBox="0 0 22 21" fill="none" xmlns="http://www.w3.org/2000/svg">
<path d="M17.1292 8.13942C17.1292 8.13942 16.6479 13.7519 16.3687 16.1161C16.2357 17.2453 15.4938 17.9069 14.2786 17.9278C11.9661 17.9669 9.65091 17.9694 7.33928 17.9236C6.17017 17.9011 5.44069 17.2311 5.31039 16.1219C5.02942 13.7369 4.55078 8.13942 4.55078 8.13942" stroke="#E36363" stroke-linecap="round" stroke-linejoin="round"/>
<path d="M18.3552 5.44901H3.32422" stroke="#E36363" stroke-linecap="round" stroke-linejoin="round"/>
<path d="M15.4588 5.44901C14.763 5.44901 14.1638 4.98651 14.0273 4.34568L13.8119 3.33234C13.679 2.86484 13.2287 2.54151 12.7155 2.54151H8.96351C8.4503 2.54151 8.00003 2.86484 7.86708 3.33234L7.65169 4.34568C7.51519 4.98651 6.91601 5.44901 6.22021 5.44901" stroke="#E36363" stroke-linecap="round" stroke-linejoin="round"/>
</svg>
