<svg width="40" height="40" viewBox="0 0 40 40" fill="none" xmlns="http://www.w3.org/2000/svg">
<circle cx="20" cy="20" r="20" fill="#5386D9"/>
<path d="M19.9888 10C14.4949 10 10 14.395 10 19.9885C10 25.4822 14.2952 29.6774 19.1897 29.9771C25.3827 30.3766 29.6779 25.4822 29.9775 20.7876C30.3771 14.4948 25.3827 10 19.9888 10ZM19.4893 11.0987C19.789 11.0987 20.0887 11.0987 20.4882 11.0987C20.4882 11.7979 20.4882 12.597 20.4882 13.2962C20.1885 13.2962 19.8889 13.2962 19.4893 13.2962C19.4893 12.4971 19.4893 11.7979 19.4893 11.0987ZM13.2963 20.488C12.5971 20.488 11.798 20.488 11.0988 20.488C11.0988 20.1883 11.0988 19.8887 11.0988 19.4891C11.798 19.4891 12.5971 19.4891 13.2963 19.4891C13.2963 19.7888 13.2963 20.1883 13.2963 20.488ZM20.4882 28.8783C20.1885 28.8783 19.8889 28.8783 19.4893 28.8783C19.4893 28.1791 19.4893 27.3801 19.4893 26.6809C19.789 26.6809 20.0887 26.6809 20.4882 26.6809C20.4882 27.3801 20.4882 28.0793 20.4882 28.8783ZM21.8866 25.7819C21.6869 25.1826 21.3872 24.6832 21.1874 24.0838C20.8878 23.2848 20.4882 22.4857 20.1885 21.5867C20.1885 21.4868 20.0887 21.3869 19.9888 21.3869C19.0898 21.3869 18.3906 20.488 18.4905 19.589C18.5903 19.2893 18.4905 19.1895 18.2907 18.9897C17.5915 18.69 16.7924 18.0907 16.0932 17.4914C16.0932 17.4914 15.9933 17.3915 15.8934 17.2916C16.0932 16.992 16.2929 16.7922 16.4927 16.4926C16.8923 16.7922 17.1919 17.0919 17.5915 17.3915C18.0909 17.7911 18.5903 18.1906 18.9899 18.4903C19.0898 18.5901 19.1897 18.5901 19.2896 18.4903C20.1885 17.9908 21.1874 18.4903 21.4871 19.2893C21.6869 19.8887 21.587 20.3881 21.1874 20.8875C21.0875 20.9874 21.0875 21.0873 21.1874 21.1872C21.6869 22.4857 22.2862 23.8841 22.7856 25.1826C22.7856 25.2825 22.7856 25.2825 22.8855 25.3824C22.486 25.5821 22.1863 25.682 21.8866 25.7819ZM28.8788 20.488C28.1796 20.488 27.3805 20.488 26.6812 20.488C26.6812 20.1883 26.6812 19.8887 26.6812 19.4891C27.3805 19.4891 28.1796 19.4891 28.8788 19.4891C28.8788 19.7888 28.8788 20.1883 28.8788 20.488Z" fill="white"/>
<path d="M19.9888 19.4891C19.6891 19.4891 19.4893 19.6889 19.4893 19.9885C19.4893 20.2882 19.6891 20.5879 19.9888 20.5879C20.2884 20.5879 20.5881 20.3881 20.5881 19.9885C20.5881 19.6889 20.2884 19.4891 19.9888 19.4891Z" fill="white"/>
</svg>
