<svg width="117" height="69" viewBox="0 0 117 69" fill="none" xmlns="http://www.w3.org/2000/svg">
<path d="M43.5633 42.7898C28.454 39.8518 20.2511 33.53 20.2511 33.53M39.8754 11.7089C43.6049 14.0025 46.6279 15.2865 50.4295 13.5408C53.1857 12.2751 56.3408 9.24213 55.533 7.68658M55.533 7.68658C55.246 7.13384 54.7928 6.67148 54.3341 6.34257C44.5303 1.02803 35.5344 7.69887 32.0378 11.9326C31.9133 12.0834 31.7037 12.1223 31.5342 12.0248C22.8289 7.01969 5.07503 5.21136 4.95321 14.3487C4.84985 22.1014 20.2511 33.53 20.2511 33.53M55.533 7.68658L49.1363 8.32729M68.3099 17.5055C72.0905 17.5151 78.0222 18.2794 83.6209 20.5319M97.1156 32.9468C95.6587 29.1051 93.0505 26.1591 89.9189 23.9233M100.76 34.2789C103.264 36.5973 105.933 40.6312 108.154 45.3221C110.328 49.913 111.54 56.8544 112.1 60.9045C112.28 62.2059 110.892 63.0101 109.888 62.1627C108.015 60.5821 105.709 58.2903 105.056 56.1409M101.436 44.8363C101.436 44.8363 99.9662 48.3059 102.363 55.9461C102.807 57.3615 105.067 62.1666 106.517 65.1974C106.712 65.6065 106.222 65.9184 105.942 65.5615C103.186 62.0461 98.1769 54.9615 97.3799 48.9957C96.0072 38.7213 96.4581 36.6525 93.4951 33.7536C91.3326 31.638 88.0687 29.9771 85.0566 29.7593M80.0267 26.8214C81.7097 27.5708 84.3411 29.6178 81.4031 31.8105C80.7223 32.0061 79.6723 32.2061 78.3613 32.3148M68.439 34.1954C66.9346 35.0308 64.6178 36.2109 62.1668 37.2677M53.216 39.7272C55.3499 39.8815 58.8791 38.6854 62.1668 37.2677M62.1668 37.2677C64.014 38.1555 68.1494 39.5104 69.9134 37.8279C71.6775 36.1454 71.3712 34.8285 70.9975 34.3804M47.3206 33.4365C51.0104 36.4296 54.9004 41.7005 40.9413 38.8395C37.2447 37.6472 29.7753 34.235 27.9832 29.7502C27.8633 29.45 28.1685 29.1834 28.4681 29.3047C30.6105 30.1724 34.2453 31.3851 37.9777 31.9925M43.0049 32.3561C41.3967 32.4202 39.6771 32.2691 37.9777 31.9925M37.9777 31.9925L41.8513 35.7986M20.2511 33.53C20.2511 33.53 20.6479 44.598 29.2622 47.6382C30.0129 47.4872 30.9458 46.0139 28.6726 41.3287M59.8979 14.2255C64.0685 12.0348 70.6637 9.1663 71.8826 10.5972M70.8153 13.9464C72.0726 12.1461 72.3136 11.103 71.8826 10.5972M71.8826 10.5972L65.8011 14.6524M83.6209 20.5319C86.9292 19.4922 92.9929 18.4947 90.781 22.8231L89.9189 23.9233M83.6209 20.5319C85.822 21.4175 87.9716 22.5331 89.9189 23.9233M76.0176 27.4397L73.5914 28.3786M73.5914 28.3786L68.301 30.4258C67.9673 30.5549 67.9723 31.0218 68.3122 31.1335C72.1258 32.3865 75.7581 32.5306 78.3613 32.3148M73.5914 28.3786L78.3613 32.3148" stroke="#113380" stroke-width="1.5" stroke-linecap="round"/>
<path d="M15.2252 11.8343C16.2726 12.9102 18.7025 14.3174 20.043 11.3388M22.976 17.4581C24.8146 17.9661 28.6684 18.0948 29.3752 14.5453M24.4523 22.939C25.0827 24.0071 25.5456 26.1255 22.3544 26.0547M36.0986 24.1813C35.6936 24.8633 34.4724 26.1975 32.8273 26.0786M42.5156 23.045C42.1737 23.776 41.0665 25.194 39.3722 25.0182M48.3827 22.1356C48.4008 23.1149 48.092 25.0486 46.7122 24.9488M53.6559 22.9837C54.0313 23.6332 54.4549 25.0286 53.1468 25.4142M62.6784 22.7026C62.6243 23.1433 62.191 24.0944 60.8905 24.3738M67.2132 22.6972C68.5553 23.1943 70.5057 24.5623 67.5703 26.0571" stroke="#113380" stroke-width="1.5" stroke-linecap="round"/>
<path d="M60.0213 30.8524C61.3658 30.9496 62.4768 29.8335 62.5694 28.5532" stroke="#113380" stroke-width="1.5" stroke-linecap="round"/>
<path d="M53.1267 32.5897C54.2947 33.2629 55.7809 32.742 56.4218 31.6298" stroke="#113380" stroke-width="1.5" stroke-linecap="round"/>
<path d="M36.8171 13.9902C42.2063 15.9728 55.1025 19.4736 63.5737 17.616" stroke="#113380" stroke-width="1.5" stroke-linecap="round" stroke-dasharray="5 5"/>
</svg>
