<svg width="55" height="66" viewBox="0 0 55 66" fill="none" xmlns="http://www.w3.org/2000/svg">
<line x1="4.75769" y1="61.2691" x2="4.75769" y2="2.18564" stroke="#113380" stroke-width="1.5" stroke-linecap="round"/>
<line x1="51.1234" y1="61.2691" x2="51.1234" y2="2.18564" stroke="#113380" stroke-width="1.5" stroke-linecap="round"/>
<path d="M0.830933 1.17297H15.3971M54.009 1.17297H23.2582" stroke="#113380" stroke-width="1.5" stroke-linecap="round"/>
<line x1="0.88562" y1="54.5508" x2="53.951" y2="54.5508" stroke="#113380" stroke-width="1.5" stroke-linecap="round"/>
<line x1="0.88562" y1="43.2418" x2="53.951" y2="43.2418" stroke="#113380" stroke-width="1.5" stroke-linecap="round"/>
<line x1="0.88562" y1="30.9766" x2="53.951" y2="30.9766" stroke="#113380" stroke-width="1.5" stroke-linecap="round"/>
<line x1="0.88562" y1="18.254" x2="53.951" y2="18.254" stroke="#113380" stroke-width="1.5" stroke-linecap="round"/>
<circle cx="4.30716" cy="63.9995" r="1.51895" fill="#113380"/>
<circle cx="50.8312" cy="63.9995" r="1.51895" fill="#113380"/>
<rect x="11.1005" y="14.8947" width="11.7905" height="2.40883" rx="1.20442" fill="#113380"/>
<rect x="11.1005" y="27.5734" width="11.7905" height="2.40883" rx="1.20442" fill="#113380"/>
<rect x="11.1005" y="40.2511" width="11.7905" height="2.40883" rx="1.20442" fill="#113380"/>
<rect x="11.1005" y="51.4073" width="11.7905" height="2.40883" rx="1.20442" fill="#113380"/>
<rect x="33.2889" y="14.895" width="11.7905" height="2.40883" rx="1.20442" fill="#113380"/>
<rect x="33.2889" y="27.5734" width="11.7905" height="2.40883" rx="1.20442" fill="#113380"/>
<rect x="33.2889" y="40.2507" width="11.7905" height="2.40883" rx="1.20442" fill="#113380"/>
<rect x="33.2889" y="51.4073" width="11.7905" height="2.40883" rx="1.20442" fill="#113380"/>
</svg>
