<svg width="123" height="51" viewBox="0 0 123 51" fill="none" xmlns="http://www.w3.org/2000/svg">
<path d="M13.9506 31.5044C15.7954 32.214 19.8257 32.6965 21.1881 28.95" stroke="#113380" stroke-width="1.5" stroke-linecap="round"/>
<path d="M8.83892 29.3763L5.85876 26.8218" stroke="#113380" stroke-width="1.5" stroke-linecap="round"/>
<path d="M21.6108 36.1873C25.1586 35.4778 31.4028 31.5894 27.9969 21.7123" stroke="#113380" stroke-width="1.5" stroke-linecap="round"/>
<path d="M5.43433 24.6928C13.5233 20.4354 28.8499 11.4948 47.5823 12.3463C67.5919 12.3463 82.4927 20.8612 92.7104 24.6928" stroke="#113380" stroke-width="1.5" stroke-linecap="round" stroke-dasharray="10 10"/>
<path d="M40.3465 27.4015C39.3786 28.0193 38.3598 28.6081 37.4981 29.0773C37.1589 29.2621 36.7436 29.2282 36.4346 28.9964L35.0753 27.977C33.7489 26.9821 34.1449 24.9182 35.7613 24.5491C39.2082 23.7619 43.036 23.1249 43.7524 23.8413C44.2532 24.3421 43.2745 25.3406 41.8287 26.3958" stroke="#113380" stroke-width="1.5" stroke-linecap="round"/>
<path d="M32.6805 40.4449C32.6805 40.4449 34.3835 46.4053 39.9181 48.9597C45.4526 51.5141 42.1319 44.8726 42.4725 43.8508" stroke="#113380" stroke-width="1.5" stroke-linecap="round"/>
<path d="M68.871 38.3165C70.5739 40.871 72.2769 42.6875 77.8114 42.1482C83.4467 41.599 83.346 34.9106 89.7321 33.6334" stroke="#113380" stroke-width="1.5" stroke-linecap="round"/>
<path d="M54.8199 8.5146L59.8995 3.82574C60.1783 3.56842 60.5711 3.48752 60.9245 3.62529C71.1892 7.62615 91.162 17.8839 94.8392 22.5639" stroke="#113380" stroke-width="1.5" stroke-linecap="round"/>
<path d="M52.6912 40.6941C37.1389 42.0573 19.5033 39.9216 3.73151 28.95L2.02856 27.247L3.73151 25.9698L2.02856 24.6926C11.5253 16.0217 33.7414 4.69273 62.0575 9.77765M59.0773 39.9323C79.089 36.9267 94.3435 28.95 95.2649 28.95C96.9679 28.95 104.205 29.3757 106.76 34.4845C108.803 38.5716 116.41 40.4449 119.958 40.8706C115.984 37.1809 108.122 28.7797 108.463 24.6926C108.803 20.6055 117.119 13.0558 119.958 10.2175C117.013 10.6628 114.069 12.5283 110.421 15.3264M67.1663 10.8615C76.3179 13.1014 86.0372 17.0866 96.1164 23.4154C96.9679 23.8411 99.948 23.6708 105.057 19.5838C106.263 18.6186 107.394 17.7067 108.463 16.8582" stroke="#113380" stroke-width="1.5" stroke-linecap="round"/>
<path d="M40.345 8.51474L43.3915 1.74466C43.7229 1.00823 44.7454 0.94805 45.1609 1.64053L48.0082 6.38605" stroke="#113380" stroke-width="1.5" stroke-linecap="round"/>
<circle cx="12.6735" cy="25.5438" r="1.37868" stroke="#113380" stroke-width="1.5" stroke-linecap="round"/>
</svg>
