<svg width="20" height="20" fill="none" xmlns="http://www.w3.org/2000/svg"><path d="M9.989 0A9.954 9.954 0 000 9.989c0 5.493 4.295 9.688 9.19 9.988 6.193.4 10.488-4.495 10.787-9.19C20.377 4.496 15.383 0 9.99 0zm-.5 1.099h1v2.197h-1V1.1zm-6.193 9.389H1.1v-.999h2.197v.999zm7.192 8.39H9.49v-2.197h1v2.197zm1.399-3.096c-.2-.6-.5-1.099-.7-1.698-.3-.8-.699-1.598-.998-2.497 0-.1-.1-.2-.2-.2-.9 0-1.598-.899-1.499-1.798.1-.3 0-.4-.2-.6-.699-.299-1.498-.898-2.197-1.498l-.2-.2c.2-.299.4-.499.6-.798.4.3.699.599 1.098.899.5.4 1 .799 1.399 1.098.1.1.2.1.3 0 .899-.5 1.897 0 2.197.8.2.599.1 1.098-.3 1.598-.1.1-.1.2 0 .3.5 1.298 1.1 2.696 1.599 3.995 0 .1 0 .1.1.2-.4.2-.7.299-1 .399zm6.992-5.294H16.68v-.999h2.198v.999z" fill="#fff"/><path d="M9.989 9.49c-.3 0-.5.199-.5.499s.2.599.5.599.6-.2.6-.6c0-.3-.3-.499-.6-.499z" fill="#fff"/></svg>