<svg width="20" height="14" fill="none" xmlns="http://www.w3.org/2000/svg"><path d="M9.482 7.722c.375.335.68.32 1.065-.025 2.742-2.455 5.488-4.906 8.23-7.362l.28-.261c-.3-.03-.527-.07-.753-.07C15.38 0 12.456 0 9.53 0 6.908 0 4.29 0 1.667.005c-.222 0-.444.044-.725.074.098.094.138.133.182.172 2.781 2.49 5.572 4.98 8.358 7.47z" fill="#fff"/><path d="M11.538 8.88c-.655.577-1.415.755-2.243.474-.31-.104-.602-.3-.858-.508-.43-.34-.824-.725-1.248-1.104C5.251 9.6 3.33 11.45 1.361 13.333h17.253c-1.957-1.888-3.87-3.742-5.804-5.606-.433.4-.848.779-1.272 1.154zM.02 1.321c-.01.148-.02.237-.02.321 0 3.348 0 6.701.005 10.05 0 .221.05.448.084.734C2.106 10.488 4.073 8.599 6.045 6.7 4.033 4.906 2.046 3.136.02 1.321zm19.916.03c-1.988 1.78-3.97 3.55-5.967 5.34 1.968 1.899 3.92 3.792 5.888 5.69.133-.305.202-10.61.079-11.03z" fill="#fff"/></svg>