<svg width="18" height="20" fill="none" xmlns="http://www.w3.org/2000/svg"><path d="M3.548 6.691c.395 4.375 2.731 7.669 7.334 9.259.255-.554.492-1.116.782-1.652.325-.597.606-.711 1.256-.588.958.193 1.915.395 2.873.614.755.176 1.098.58 1.141 1.344.062 1.054.115 2.1.167 3.154.035.764-.158 1.08-.94 1.124-1.133.053-2.292.106-3.408-.044-3.505-.465-6.509-2.011-8.872-4.629C.771 11.83-.537 7.79.201 3.16.333 2.343.57 1.535.851.753c.264-.755.606-.878 1.361-.65 1.046.316 2.1.633 3.145.958.615.184.984.606.984 1.247 0 1.063-.035 2.134-.097 3.197-.035.589-.474.905-1.29 1.01-.458.062-.923.115-1.406.176z" fill="#fff"/></svg>