<svg width="17" height="15" fill="none" xmlns="http://www.w3.org/2000/svg"><path d="M15.313 1.031C13.5-.5 10.718-.28 9 1.5c-1.75-1.781-4.531-2-6.344-.469C.312 3 .656 6.22 2.344 7.938l5.469 5.593c.312.313.718.5 1.187.5a1.63 1.63 0 001.156-.5l5.5-5.594c1.656-1.718 2-4.937-.344-6.906zm-.75 5.844l-5.47 5.594c-.062.062-.124.062-.218 0L3.406 6.875c-1.156-1.156-1.375-3.344.219-4.688 1.219-1.03 3.094-.874 4.281.313L9 3.625 10.094 2.5c1.156-1.188 3.031-1.344 4.25-.344 1.594 1.375 1.375 3.563.219 4.719z" fill="#113380"/></svg>