<svg width="40" height="40" fill="none" xmlns="http://www.w3.org/2000/svg"><circle cx="20" cy="20" r="20" fill="#5386D9"/><path d="M19.482 20.722c.375.335.68.32 1.065-.025 2.742-2.455 5.488-4.906 8.23-7.362l.28-.261c-.3-.03-.527-.07-.753-.07C25.38 13 22.456 13 19.53 13c-2.623 0-5.241 0-7.864.005-.222 0-.444.044-.725.074.098.094.138.133.182.172 2.781 2.49 5.572 4.98 8.358 7.47z" fill="#fff"/><path d="M21.538 21.88c-.655.578-1.415.755-2.243.474-.31-.104-.602-.3-.858-.508-.43-.34-.824-.725-1.248-1.105-1.938 1.86-3.86 3.709-5.828 5.592h17.253c-1.957-1.888-3.87-3.742-5.803-5.606-.434.4-.849.779-1.273 1.154zM10.02 14.322c-.01.147-.02.236-.02.32 0 3.348 0 6.701.005 10.05 0 .221.05.448.084.734 2.016-1.938 3.984-3.826 5.956-5.725-2.012-1.795-3.999-3.565-6.025-5.38zm19.916.029c-1.988 1.78-3.97 3.55-5.967 5.34 1.968 1.899 3.92 3.792 5.888 5.69.133-.305.202-10.61.079-11.03z" fill="#fff"/></svg>