<svg width="40" height="40" fill="none" xmlns="http://www.w3.org/2000/svg"><circle cx="20" cy="20" r="20" fill="#5386D9"/><path d="M14.548 16.691c.395 4.375 2.731 7.669 7.334 9.259.255-.554.492-1.116.782-1.652.325-.597.606-.711 1.256-.588.958.193 1.915.395 2.872.614.756.176 1.098.58 1.142 1.344.062 1.054.115 2.1.167 3.154.035.764-.158 1.08-.94 1.124-1.133.053-2.292.106-3.408-.044-3.505-.465-6.509-2.011-8.872-4.629-3.11-3.443-4.418-7.484-3.68-12.113.132-.817.369-1.625.65-2.407.263-.755.606-.878 1.361-.65 1.046.316 2.1.633 3.145.958.615.184.984.606.984 1.247 0 1.063-.035 2.135-.097 3.197-.035.589-.474.905-1.29 1.01-.458.062-.923.115-1.406.176z" fill="#fff"/></svg>