<svg width="40" height="40" fill="none" xmlns="http://www.w3.org/2000/svg"><circle cx="20" cy="20" r="20" fill="#5386D9"/><path d="M19.989 10A9.954 9.954 0 0010 19.988c0 5.494 4.295 9.69 9.19 9.99 6.193.399 10.488-4.496 10.787-9.19C30.377 14.495 25.383 10 19.99 10zm-.5 1.099h1v2.197h-1V11.1zm-6.193 9.389H11.1v-.999h2.197v.999zm7.192 8.39h-.999v-2.197h1v2.197zm1.399-3.096c-.2-.6-.5-1.099-.7-1.698-.3-.8-.699-1.598-.998-2.497 0-.1-.1-.2-.2-.2-.9 0-1.598-.899-1.498-1.798.1-.3 0-.4-.2-.6-.7-.299-1.499-.898-2.198-1.498l-.2-.2c.2-.299.4-.499.6-.798.4.3.699.599 1.099.899.499.4.998.799 1.398 1.098.1.1.2.1.3 0 .899-.5 1.897 0 2.197.8.2.599.1 1.098-.3 1.598-.1.1-.1.2 0 .3.5 1.298 1.1 2.696 1.599 3.995 0 .1 0 .1.1.2-.4.2-.7.299-1 .399zm6.992-5.294H26.68v-.999h2.198v.999z" fill="#fff"/><path d="M19.989 19.49c-.3 0-.5.199-.5.498 0 .3.2.6.5.6s.6-.2.6-.6c0-.3-.3-.499-.6-.499z" fill="#fff"/></svg>