<svg width="14" height="16" fill="none" xmlns="http://www.w3.org/2000/svg"><path d="M9.781 9.5C8.875 9.5 8.47 10 7 10c-1.5 0-1.906-.5-2.813-.5C1.876 9.5 0 11.406 0 13.719v.781c0 .844.656 1.5 1.5 1.5h11a1.5 1.5 0 001.5-1.5v-.781C14 11.406 12.094 9.5 9.781 9.5zm2.719 5h-11v-.781C1.5 12.219 2.688 11 4.188 11c.468 0 1.187.5 2.812.5 1.594 0 2.313-.5 2.781-.5a2.72 2.72 0 012.719 2.719v.781zM7 9c2.469 0 4.5-2 4.5-4.5C11.5 2.031 9.469 0 7 0 4.5 0 2.5 2.031 2.5 4.5 2.5 7 4.5 9 7 9zm0-7.5c1.625 0 3 1.375 3 3 0 1.656-1.375 3-3 3a3 3 0 01-3-3c0-1.625 1.344-3 3-3z" fill="#113380"/></svg>